<svg width="512" height="512" viewBox="0 0 512 512" fill="none" xmlns="http://www.w3.org/2000/svg">
<g clip-path="url(#clip0_599_148)">
<path fill-rule="evenodd" clip-rule="evenodd" d="M256 0C397.29 0 512 114.71 512 256C512 397.29 397.29 512 256 512C114.71 512 0 397.29 0 256C0 114.71 114.71 0 256 0ZM256 104.795C167.268 104.795 98.5 169.792 98.5 257.574C98.5 303.493 117.324 343.169 147.969 370.581C150.535 372.894 152.088 376.095 152.215 379.549L153.071 407.563C153.356 416.5 162.577 422.299 170.754 418.718L202 404.933C204.662 403.761 207.609 403.539 210.398 404.299C224.753 408.26 240.06 410.352 256 410.352C344.732 410.352 413.5 345.355 413.5 257.574C413.5 169.792 344.732 104.795 256 104.795ZM161.437 302.257L207.704 228.862C215.056 217.201 230.838 214.285 241.866 222.556L278.658 250.158C282.049 252.694 286.676 252.662 290.035 250.127L339.725 212.415C346.348 207.377 355.032 215.331 350.563 222.366L304.327 295.729C296.975 307.391 281.194 310.306 270.166 302.035L233.374 274.433C229.982 271.897 225.356 271.929 221.997 274.465L172.275 312.208C165.652 317.246 156.968 309.292 161.437 302.257Z" fill="white"/>
</g>
<defs>
<clipPath id="clip0_599_148">
<rect width="512" height="512" fill="white"/>
</clipPath>
</defs>
</svg>
